<svg width="293" height="52" viewBox="0 0 293 52" fill="none" xmlns="http://www.w3.org/2000/svg">
<rect x="118" y="2.77441" width="166" height="41" rx="3" fill="#0B0B0B"/>
<path d="M27.376 18.8504V24.2444L17.632 26.6804L16.24 40.7744H4.93L1.45 5.62641H28.13L29.928 12.8184L18.966 13.5144L18.386 18.8504H27.376ZM42.4705 41.3544C39.4932 41.3544 37.0378 40.4844 35.1045 38.7444C33.2098 37.0044 32.2625 34.5491 32.2625 31.3784C32.2625 28.1691 33.3452 25.8491 35.5105 24.4184C37.6758 22.9491 40.2858 22.2144 43.3405 22.2144C46.3952 22.2144 49.0438 22.6977 51.2865 23.6644C50.7838 20.4551 48.7538 18.8504 45.1965 18.8504C43.5725 18.8504 41.5618 19.1791 39.1645 19.8364L37.7145 14.6164C41.1945 13.1857 44.7325 12.4704 48.3285 12.4704C58.6912 12.4704 63.8725 16.8784 63.8725 25.6944C63.8725 28.7104 63.5245 32.8864 62.8285 38.2224L62.5385 40.7744H52.9685L52.6205 37.5844C49.9912 40.0977 46.6078 41.3544 42.4705 41.3544ZM47.6905 34.1624C49.4305 34.1624 50.9192 33.6791 52.1565 32.7124L51.8085 28.8844C50.8418 28.2271 49.7592 27.8984 48.5605 27.8984C47.4005 27.8984 46.4338 28.1884 45.6605 28.7684C44.9258 29.3484 44.5585 30.0637 44.5585 30.9144C44.5585 31.7651 44.8485 32.5191 45.4285 33.1764C46.0085 33.8337 46.7625 34.1624 47.6905 34.1624ZM92.5018 32.0744C92.5018 34.2784 91.7672 36.1151 90.2978 37.5844C88.8285 39.0537 87.1272 40.0591 85.1938 40.6004C83.2992 41.1031 81.4625 41.3544 79.6838 41.3544C77.9052 41.3544 76.3392 41.2384 74.9858 41.0064C73.6712 40.7744 72.5498 40.5037 71.6218 40.1944C69.9205 39.5371 68.5672 38.9184 67.5618 38.3384L67.0398 37.9904L69.5918 32.7124C71.9118 34.0271 73.8645 34.6844 75.4498 34.6844C77.0352 34.6844 77.8278 34.0271 77.8278 32.7124C77.8278 32.0551 77.3252 31.3784 76.3198 30.6824C75.3145 29.9864 74.2125 29.3291 73.0138 28.7104C71.8538 28.0917 70.7712 27.1444 69.7658 25.8684C68.7605 24.5924 68.2578 23.1231 68.2578 21.4604C68.2578 18.4831 69.3792 16.2404 71.6218 14.7324C73.8645 13.2244 76.8225 12.4704 80.4958 12.4704C82.3518 12.4704 84.1692 12.6251 85.9478 12.9344C87.7265 13.2437 89.0605 13.5531 89.9498 13.8624L91.2258 14.3844L89.7758 20.2424C87.5718 19.4304 85.6965 19.0244 84.1498 19.0244C82.6032 19.0244 81.8298 19.6237 81.8298 20.8224C81.8298 21.4024 82.1972 21.9631 82.9318 22.5044C83.6665 23.0071 84.5558 23.5097 85.5998 24.0124C86.6438 24.5151 87.6878 25.0951 88.7318 25.7524C89.7758 26.3711 90.6652 27.2411 91.3998 28.3624C92.1345 29.4451 92.5018 30.6824 92.5018 32.0744ZM111.077 30.4504C111.038 32.6931 111.831 33.8144 113.455 33.8144C113.919 33.8144 114.479 33.6017 115.137 33.1764L116.355 38.8024C116.123 38.9957 115.794 39.2471 115.369 39.5564C114.982 39.8271 114.112 40.1944 112.759 40.6584C111.444 41.1224 110.071 41.3544 108.641 41.3544C106.011 41.3544 103.865 40.4651 102.203 38.6864C100.54 36.8691 99.6508 34.5684 99.5348 31.7844L99.0128 20.8224H94.5468L95.2428 13.2824H98.7228L98.4908 7.59841L112.237 4.81441L111.831 13.2824H115.195L115.891 20.8224H111.483L111.077 30.4504Z" fill="#2F2E0C"/>
<path d="M147.502 40.7744L146.168 27.4344L135.844 28.3624L134.626 40.7744H123.316L119.836 5.62641H138.106L136.772 19.0244H145.356L144.022 5.62641H162.292L158.812 40.7744H147.502ZM179.575 14.0944L180.561 13.7464L178.589 40.7744H167.627L165.771 13.7464C167.975 14.6357 170.315 15.0804 172.789 15.0804C175.303 15.0804 177.565 14.7517 179.575 14.0944ZM173.137 12.5284C171.204 12.5284 169.58 11.9484 168.265 10.7884C166.951 9.62841 166.293 8.12041 166.293 6.26441C166.293 4.36974 166.931 2.86174 168.207 1.74041C169.522 0.580413 171.146 0.000413537 173.079 0.000413537C175.051 0.000413537 176.695 0.580413 178.009 1.74041C179.324 2.90041 179.981 4.40841 179.981 6.26441C179.981 8.12041 179.324 9.62841 178.009 10.7884C176.695 11.9484 175.071 12.5284 173.137 12.5284ZM196.942 17.0524C198.992 13.9977 201.524 12.4704 204.54 12.4704C205.971 12.4704 207.286 12.8184 208.484 13.5144L207.092 23.0264C205.546 21.9437 203.806 21.4024 201.872 21.4024C200.016 21.4024 198.76 22.1757 198.102 23.7224C197.716 24.6891 197.464 25.6171 197.348 26.5064L196.246 40.7744H185.806L184.066 13.2824H195.492L196.942 17.0524ZM225.372 41.3544C221.003 41.3544 217.329 40.0977 214.352 37.5844C211.413 35.0324 209.944 31.3011 209.944 26.3904C209.944 23.2971 210.698 20.6677 212.206 18.5024C214.951 14.4811 219.205 12.4704 224.966 12.4704C229.374 12.4704 232.738 13.3597 235.058 15.1384C237.378 16.8784 238.538 19.2951 238.538 22.3884C238.538 24.7857 237.571 26.7384 235.638 28.2464C233.743 29.7157 230.959 30.4504 227.286 30.4504C225.778 30.4504 224.425 30.3344 223.226 30.1024L222.588 29.9864C222.781 31.3784 223.381 32.4224 224.386 33.1184C225.43 33.7757 226.667 34.1044 228.098 34.1044C230.457 34.1044 232.467 33.3891 234.13 31.9584L237.726 36.3084C237.107 37.0431 236.373 37.7391 235.522 38.3964C234.671 39.0151 233.318 39.6724 231.462 40.3684C229.606 41.0257 227.576 41.3544 225.372 41.3544ZM230.07 21.8664C230.07 21.0931 229.761 20.4551 229.142 19.9524C228.562 19.4497 227.75 19.1984 226.706 19.1984C225.662 19.1984 224.676 19.6624 223.748 20.5904C222.859 21.5184 222.414 22.6204 222.414 23.8964C223.265 24.2831 224.367 24.4764 225.72 24.4764C227.112 24.4764 228.175 24.2444 228.91 23.7804C229.683 23.2777 230.07 22.6397 230.07 21.8664ZM255.53 3.13241L253.964 40.7744H243.292L241.726 3.13241H255.53ZM279.128 34.3364V33.8724C279.012 34.5297 278.702 35.2644 278.2 36.0764C277.736 36.8497 277.214 37.5071 276.634 38.0484C276.054 38.5897 275.222 39.0731 274.14 39.4984C273.096 39.9237 271.704 40.1364 269.964 40.1364C268.224 40.1364 266.58 39.7497 265.034 38.9764C263.487 38.1644 262.288 37.0624 261.438 35.6704C259.814 33.0797 259.002 30.2377 259.002 27.1444C259.002 24.0124 259.446 19.3917 260.336 13.2824H271.588V25.8104C271.588 30.0637 272.844 32.1904 275.358 32.1904C276.479 32.1904 277.31 31.6877 277.852 30.6824C278.393 29.6771 278.664 28.4011 278.664 26.8544C278.664 26.6611 278.664 26.4484 278.664 26.2164L278.142 13.2824H291.192L290.38 31.0884C290.264 33.6017 290.07 35.7477 289.8 37.5264C289.568 39.3051 289.104 41.1224 288.408 42.9784C287.75 44.8731 286.88 46.4004 285.798 47.5604C283.284 50.1897 279.553 51.5044 274.604 51.5044C271.124 51.5044 267.856 50.4217 264.802 48.2564L264.28 47.9084L266.716 42.9204C268.572 43.7711 270.312 44.1964 271.936 44.1964C274.178 44.1964 275.938 43.3264 277.214 41.5864C278.49 39.8851 279.128 37.4684 279.128 34.3364Z" fill="#AEFF6E"/>
</svg>
